<svg width="16" height="16" viewBox="0 0 16 16" fill="none" xmlns="http://www.w3.org/2000/svg">
<path d="M10.6663 2.66667C10.6663 2.48986 10.5961 2.32029 10.4711 2.19526C10.3461 2.07024 10.1765 2 9.99967 2H5.99967C5.82286 2 5.65329 2.07024 5.52827 2.19526C5.40325 2.32029 5.33301 2.48986 5.33301 2.66667V7.33333H10.6663V2.66667Z" fill="#7E89A1"/>
<path d="M2 9.33335V13.3334C2 13.5102 2.07024 13.6797 2.19526 13.8048C2.32029 13.9298 2.48986 14 2.66667 14H7.33333V8.66669H2.66667C2.48986 8.66669 2.32029 8.73693 2.19526 8.86195C2.07024 8.98697 2 9.15654 2 9.33335Z" fill="#7E89A1"/>
<path d="M13.3337 8.66669H8.66699V14H13.3337C13.5105 14 13.68 13.9298 13.8051 13.8048C13.9301 13.6797 14.0003 13.5102 14.0003 13.3334V9.33335C14.0003 9.15654 13.9301 8.98697 13.8051 8.86195C13.68 8.73693 13.5105 8.66669 13.3337 8.66669Z" fill="#7E89A1"/>
</svg>
