<svg width="12" height="14" viewBox="0 0 12 14" fill="none" xmlns="http://www.w3.org/2000/svg">
<path d="M6.00029 0.333313C4.58673 0.334727 3.23154 0.897254 2.2325 1.89729C1.23346 2.89734 0.672289 4.25308 0.67229 5.66665C0.655398 7.38071 1.15447 9.06022 2.10465 10.4869C3.05483 11.9136 4.41218 13.0215 6.00029 13.6666C7.58791 13.0211 8.94469 11.913 9.89437 10.4864C10.844 9.0597 11.3427 7.3804 11.3256 5.66665C11.3256 4.25354 10.7648 2.8982 9.76636 1.89824C8.76789 0.898271 7.41339 0.335433 6.00029 0.333313ZM6.00029 7.66665C5.60473 7.66665 5.21805 7.54935 4.88915 7.32959C4.56025 7.10982 4.30391 6.79747 4.15253 6.43201C4.00116 6.06656 3.96155 5.66443 4.03872 5.27647C4.11589 4.8885 4.30637 4.53214 4.58608 4.25243C4.86578 3.97273 5.22215 3.78225 5.61011 3.70508C5.99807 3.62791 6.4002 3.66751 6.76566 3.81889C7.13111 3.97026 7.44347 4.22661 7.66323 4.55551C7.88299 4.8844 8.00029 5.27108 8.00029 5.66665C8.00029 6.19708 7.78958 6.70579 7.4145 7.08086C7.03943 7.45593 6.53072 7.66665 6.00029 7.66665Z" fill="#7E89A1"/>
</svg>
