<svg width="14" height="14" viewBox="0 0 14 14" fill="none" xmlns="http://www.w3.org/2000/svg">
<path d="M3.66634 6.33331C3.99598 6.33331 4.31821 6.43106 4.59229 6.6142C4.86637 6.79733 5.07999 7.05763 5.20614 7.36217C5.33229 7.66672 5.36529 8.00183 5.30098 8.32513C5.23667 8.64843 5.07794 8.9454 4.84485 9.17849C4.61176 9.41158 4.31479 9.57031 3.99149 9.63462C3.66819 9.69893 3.33308 9.66593 3.02854 9.53978C2.72399 9.41363 2.46369 9.20001 2.28056 8.92593C2.09742 8.65185 1.99967 8.32962 1.99967 7.99998C1.99967 7.55795 2.17527 7.13403 2.48783 6.82147C2.80039 6.50891 3.22431 6.33331 3.66634 6.33331ZM3.66634 10.3333C2.78229 10.3333 1.93444 10.6845 1.30932 11.3096C0.684197 11.9347 0.333008 12.7826 0.333008 13.6666H6.99967C6.99967 13.2289 6.91346 12.7955 6.74594 12.391C6.57842 11.9866 6.33289 11.6192 6.02336 11.3096C5.71384 11.0001 5.34637 10.7546 4.94195 10.587C4.53753 10.4195 4.10408 10.3333 3.66634 10.3333ZM10.333 9.66665C10.6626 9.66665 10.9849 9.5689 11.259 9.38576C11.533 9.20263 11.7467 8.94233 11.8728 8.63779C11.999 8.33324 12.032 7.99813 11.9677 7.67483C11.9033 7.35153 11.7446 7.05456 11.5115 6.82147C11.2784 6.58838 10.9815 6.42965 10.6582 6.36534C10.3349 6.30103 9.99975 6.33403 9.6952 6.46018C9.39066 6.58633 9.13036 6.79995 8.94723 7.07403C8.76409 7.34811 8.66634 7.67034 8.66634 7.99998C8.66634 8.44201 8.84194 8.86593 9.1545 9.17849C9.46706 9.49105 9.89098 9.66665 10.333 9.66665ZM10.333 10.3333C9.44895 10.3333 8.60111 10.6845 7.97599 11.3096C7.35086 11.9347 6.99967 12.7826 6.99967 13.6666H13.6663C13.6663 12.7826 13.3152 11.9347 12.69 11.3096C12.0649 10.6845 11.2171 10.3333 10.333 10.3333ZM8.66634 1.99998C8.66634 1.67034 8.56859 1.34811 8.38546 1.07403C8.20232 0.799948 7.94202 0.586327 7.63748 0.460181C7.33294 0.334035 6.99783 0.30103 6.67452 0.365338C6.35122 0.429647 6.05425 0.588382 5.82116 0.821469C5.58808 1.05456 5.42934 1.35153 5.36503 1.67483C5.30072 1.99813 5.33373 2.33324 5.45988 2.63779C5.58602 2.94233 5.79964 3.20263 6.07372 3.38576C6.34781 3.5689 6.67004 3.66665 6.99967 3.66665C7.21854 3.66665 7.43527 3.62354 7.63748 3.53978C7.83969 3.45602 8.02342 3.33326 8.17819 3.17849C8.33295 3.02373 8.45572 2.84 8.53947 2.63779C8.62323 2.43558 8.66634 2.21885 8.66634 1.99998ZM6.63234 7.66665H7.36567C7.42552 7.126 7.63163 6.61189 7.96182 6.17962C8.29201 5.74734 8.7338 5.41327 9.23967 5.21331C8.63092 4.64764 7.83068 4.33323 6.99967 4.33323C6.16867 4.33323 5.36843 4.64764 4.75968 5.21331C5.2653 5.41346 5.70681 5.74762 6.03676 6.17988C6.36671 6.61214 6.57261 7.12614 6.63234 7.66665Z" fill="#7E89A1"/>
</svg>
